<?xml version="1.0" encoding="UTF-8"?>
<svg version="1.1" xmlns="http://www.w3.org/2000/svg" width="32" height="32">
<path d="M0 0 C10.56 0 21.12 0 32 0 C32 4.29 32 8.58 32 13 C21.15864787 13.86253107 10.84185513 13.94734656 0 13 C0 8.71 0 4.42 0 0 Z " fill="#DCCEBC" transform="translate(0,10)"/>
<path d="M0 0 C10.56 0 21.12 0 32 0 C32 4.29 32 8.58 32 13 C21.15864787 13.86253107 10.84185513 13.94734656 0 13 C0 8.71 0 4.42 0 0 Z M2 2 C2 4.64 2 7.28 2 10 C11.24 10 20.48 10 30 10 C30 7.36 30 4.72 30 2 C20.76 2 11.52 2 2 2 Z " fill="#332921" transform="translate(0,10)"/>
<path d="M0 0 C0.99 0 1.98 0 3 0 C3 0.66 3 1.32 3 2 C4.32 2 5.64 2 7 2 C7 2.66 7 3.32 7 4 C6.34 4 5.68 4 5 4 C5 4.66 5 5.32 5 6 C8.96 6 12.92 6 17 6 C17 6.66 17 7.32 17 8 C11.39 8 5.78 8 0 8 C0 5.36 0 2.72 0 0 Z " fill="#B9AA98" transform="translate(2,12)"/>
<path d="M0 0 C1.91595968 -0.08133791 3.83291932 -0.13934367 5.75 -0.1875 C7.35101563 -0.23970703 7.35101563 -0.23970703 8.984375 -0.29296875 C12.30027855 0.02917214 13.59016673 0.77148914 16 3 C15.34 3 14.68 3 14 3 C14 3.66 14 4.32 14 5 C12.35 5 10.7 5 9 5 C9 4.34 9 3.68 9 3 C5.535 4.485 5.535 4.485 2 6 C2 5.34 2 4.68 2 4 C2.66 4 3.32 4 4 4 C4 3.34 4 2.68 4 2 C2.68 2 1.36 2 0 2 C0 1.34 0 0.68 0 0 Z " fill="#CEBCA6" transform="translate(5,12)"/>
<path d="M0 0 C2.97 0 5.94 0 9 0 C9 2.64 9 5.28 9 8 C8.01 8 7.02 8 6 8 C6 7.01 6 6.02 6 5 C4.35 5 2.7 5 1 5 C0.67 3.35 0.34 1.7 0 0 Z " fill="#C4B7A6" transform="translate(21,12)"/>
<path d="M0 0 C1.32 0 2.64 0 4 0 C4 0.66 4 1.32 4 2 C5.65 2 7.3 2 9 2 C9 1.34 9 0.68 9 0 C9.66 0 10.32 0 11 0 C10.34 1.32 9.68 2.64 9 4 C5.7 4 2.4 4 -1 4 C-1.33 3.34 -1.66 2.68 -2 2 C-1.34 2 -0.68 2 0 2 C0 1.34 0 0.68 0 0 Z " fill="#CCC2B2" transform="translate(10,15)"/>
<path d="M0 0 C1.98 0 3.96 0 6 0 C6 2.64 6 5.28 6 8 C5.34 8 4.68 8 4 8 C4 7.01 4 6.02 4 5 C3.01 4.67 2.02 4.34 1 4 C0.3125 1.9375 0.3125 1.9375 0 0 Z " fill="#A5937F" transform="translate(24,12)"/>
<path d="M0 0 C0.66 0 1.32 0 2 0 C3.125 3.75 3.125 3.75 2 6 C3.32 6.66 4.64 7.32 6 8 C4.02 8 2.04 8 0 8 C0 5.36 0 2.72 0 0 Z " fill="#997E67" transform="translate(2,12)"/>
<path d="M0 0 C3.3 0 6.6 0 10 0 C9.01 0.495 9.01 0.495 8 1 C8 1.66 8 2.32 8 3 C6.35 3 4.7 3 3 3 C3 2.34 3 1.68 3 1 C2.01 1.33 1.02 1.66 0 2 C0 1.34 0 0.68 0 0 Z " fill="#A4A7A0" transform="translate(11,14)"/>
</svg>
