<?xml version="1.0" encoding="UTF-8"?>
<svg version="1.1" xmlns="http://www.w3.org/2000/svg" width="48" height="23">
<path d="M0 0 C0.91765137 -0.00315216 1.83530273 -0.00630432 2.78076172 -0.009552 C4.27760498 -0.00651566 4.27760498 -0.00651566 5.8046875 -0.00341797 C6.82191895 -0.00437469 7.83915039 -0.00533142 8.88720703 -0.00631714 C11.04264386 -0.00699908 13.19808272 -0.00514382 15.35351562 -0.00097656 C18.66541121 0.00437148 21.97717117 -0.0009211 25.2890625 -0.00732422 C27.37760447 -0.00666344 29.46614635 -0.00538228 31.5546875 -0.00341797 C32.55258301 -0.0054422 33.55047852 -0.00746643 34.57861328 -0.009552 C35.49626465 -0.00639984 36.41391602 -0.00324768 37.359375 0 C38.17132324 0.00079559 38.98327148 0.00159119 39.81982422 0.00241089 C41.6796875 0.12939453 41.6796875 0.12939453 42.6796875 1.12939453 C42.6796875 7.06939453 42.6796875 13.00939453 42.6796875 19.12939453 C26.8396875 19.12939453 10.9996875 19.12939453 -5.3203125 19.12939453 C-5.3203125 0.00521315 -5.3203125 0.00521315 0 0 Z " fill="#D7C4AD" transform="translate(5.3203125,2.87060546875)"/>
<path d="M0 0 C0.91765137 -0.00315216 1.83530273 -0.00630432 2.78076172 -0.009552 C4.27760498 -0.00651566 4.27760498 -0.00651566 5.8046875 -0.00341797 C6.82191895 -0.00437469 7.83915039 -0.00533142 8.88720703 -0.00631714 C11.04264386 -0.00699908 13.19808272 -0.00514382 15.35351562 -0.00097656 C18.66541121 0.00437148 21.97717117 -0.0009211 25.2890625 -0.00732422 C27.37760447 -0.00666344 29.46614635 -0.00538228 31.5546875 -0.00341797 C32.55258301 -0.0054422 33.55047852 -0.00746643 34.57861328 -0.009552 C35.49626465 -0.00639984 36.41391602 -0.00324768 37.359375 0 C38.17132324 0.00079559 38.98327148 0.00159119 39.81982422 0.00241089 C41.6796875 0.12939453 41.6796875 0.12939453 42.6796875 1.12939453 C42.6796875 7.06939453 42.6796875 13.00939453 42.6796875 19.12939453 C26.8396875 19.12939453 10.9996875 19.12939453 -5.3203125 19.12939453 C-5.3203125 0.00521315 -5.3203125 0.00521315 0 0 Z M-2.3203125 3.12939453 C-2.3203125 6.75939453 -2.3203125 10.38939453 -2.3203125 14.12939453 C0.73614919 14.89350995 2.68741008 15.25274608 5.71386719 15.24291992 C6.49437439 15.24284439 7.27488159 15.24276886 8.07904053 15.24269104 C8.91147278 15.23752975 9.74390503 15.23236847 10.6015625 15.22705078 C11.46154846 15.22563583 12.32153442 15.22422089 13.20758057 15.22276306 C15.94831859 15.2171755 18.68897426 15.20462528 21.4296875 15.19189453 C23.2903634 15.18687792 25.15104059 15.1823153 27.01171875 15.17822266 C31.56773996 15.16721014 36.12369978 15.14995404 40.6796875 15.12939453 C40.6796875 10.83939453 40.6796875 6.54939453 40.6796875 2.12939453 C35.03800781 2.10469199 29.39635955 2.08653332 23.75463867 2.07446289 C21.83503674 2.06943138 19.91543864 2.06260555 17.99584961 2.05395508 C15.23810886 2.04183784 12.48041874 2.03615442 9.72265625 2.03173828 C8.86318893 2.026577 8.00372162 2.02141571 7.11820984 2.01609802 C6.31760635 2.01602249 5.51700287 2.01594696 4.69213867 2.01586914 C3.9882048 2.01364853 3.28427094 2.01142792 2.55900574 2.00914001 C0.45147094 2.06379919 0.45147094 2.06379919 -2.3203125 3.12939453 Z " fill="#15110E" transform="translate(5.3203125,2.87060546875)"/>
<path d="M0 0 C13.2 0 26.4 0 40 0 C40 4.29 40 8.58 40 13 C38.68 13 37.36 13 36 13 C36 12.01 36 11.02 36 10 C32.04 9.67 28.08 9.34 24 9 C23.67 9.66 23.34 10.32 23 11 C23 10.34 23 9.68 23 9 C19.02022924 8.1558062 15.02992782 7.55312735 11 7 C10.67 5.68 10.34 4.36 10 3 C14.95 3 19.9 3 25 3 C25 4.65 25 6.3 25 8 C25.66 7.67 26.32 7.34 27 7 C27 5.35 27 3.7 27 2 C18.09 1.67 9.18 1.34 0 1 C0 0.67 0 0.34 0 0 Z " fill="#C4BAAA" transform="translate(6,5)"/>
<path d="M0 0 C4 1 4 1 6.0625 2.125 C8.14419719 3.32897101 8.14419719 3.32897101 11 2 C11 3.32 11 4.64 11 6 C10.01 6 9.02 6 8 6 C8 6.99 8 7.98 8 9 C8.99 9 9.98 9 11 9 C11 9.66 11 10.32 11 11 C14.3 11 17.6 11 21 11 C21 11.33 21 11.66 21 12 C18.24993392 12.0270203 15.50013454 12.04684883 12.75 12.0625 C11.97269531 12.07087891 11.19539062 12.07925781 10.39453125 12.08789062 C9.26337891 12.09272461 9.26337891 12.09272461 8.109375 12.09765625 C7.07248535 12.10551147 7.07248535 12.10551147 6.01464844 12.11352539 C4 12 4 12 0 11 C0 7.37 0 3.74 0 0 Z " fill="#BB9F84" transform="translate(3,6)"/>
<path d="M0 0 C8.25 0 16.5 0 25 0 C24.67 1.32 24.34 2.64 24 4 C21.12474331 4.05425013 18.25052354 4.09379277 15.375 4.125 C14.56675781 4.14175781 13.75851563 4.15851562 12.92578125 4.17578125 C8.19906185 4.21420986 4.44612298 3.82737094 0 2 C0 1.34 0 0.68 0 0 Z " fill="#B6AD9D" transform="translate(18,14)"/>
<path d="M0 0 C13.2 0 26.4 0 40 0 C40 4.29 40 8.58 40 13 C38.68 13 37.36 13 36 13 C36 9.7 36 6.4 36 3 C36.66 3 37.32 3 38 3 C38 2.34 38 1.68 38 1 C25.46 1 12.92 1 0 1 C0 0.67 0 0.34 0 0 Z " fill="#8E735B" transform="translate(6,5)"/>
<path d="M0 0 C0.66 0.66 1.32 1.32 2 2 C2.99 2 3.98 2 5 2 C5.33 2.66 5.66 3.32 6 4 C8.52733235 4.65555119 8.52733235 4.65555119 11 5 C10.01 5.495 10.01 5.495 9 6 C8.67 6.66 8.34 7.32 8 8 C8 7.34 8 6.68 8 6 C6.35 6 4.7 6 3 6 C3 6.66 3 7.32 3 8 C4.32 8.33 5.64 8.66 7 9 C4.36 9 1.72 9 -1 9 C-1 8.34 -1 7.68 -1 7 C-1.99 7 -2.98 7 -4 7 C-4 6.01 -4 5.02 -4 4 C-3.01 4 -2.02 4 -1 4 C-0.67 2.68 -0.34 1.36 0 0 Z " fill="#DAC8B3" transform="translate(15,8)"/>
<path d="M0 0 C1.32 0.33 2.64 0.66 4 1 C4.33 2.65 4.66 4.3 5 6 C4.01 6.33 3.02 6.66 2 7 C2.99 7.66 3.98 8.32 5 9 C5 9.66 5 10.32 5 11 C6.32 11.33 7.64 11.66 9 12 C6.03 11.67 3.06 11.34 0 11 C0 7.37 0 3.74 0 0 Z " fill="#A08C77" transform="translate(3,6)"/>
<path d="M0 0 C4.29 0 8.58 0 13 0 C13 0.33 13 0.66 13 1 C7.35600642 3.44064587 2.02248522 3.19289099 -4 3 C-2.68 2.67 -1.36 2.34 0 2 C0 1.34 0 0.68 0 0 Z " fill="#DECEBA" transform="translate(30,14)"/>
<path d="M0 0 C6.625 -0.25 6.625 -0.25 10 2 C10.66 1.67 11.32 1.34 12 1 C12 1.99 12 2.98 12 4 C8.37 4 4.74 4 1 4 C0.67 2.68 0.34 1.36 0 0 Z " fill="#959B96" transform="translate(16,8)"/>
<path d="M0 0 C2.64 0 5.28 0 8 0 C9 3 9 3 9 7 C8.01 7 7.02 7 6 7 C6 5.35 6 3.7 6 2 C3.69 2 1.38 2 -1 2 C-0.67 1.34 -0.34 0.68 0 0 Z " fill="#E9DECD" transform="translate(25,6)"/>
<path d="M0 0 C0.33 0 0.66 0 1 0 C1.02698189 1.62490954 1.04638757 3.24994633 1.0625 4.875 C1.07410156 5.77992187 1.08570313 6.68484375 1.09765625 7.6171875 C1 10 1 10 0 12 C-0.66 12 -1.32 12 -2 12 C-2 8.7 -2 5.4 -2 2 C-1.34 2 -0.68 2 0 2 C0 1.34 0 0.68 0 0 Z " fill="#A6917B" transform="translate(44,6)"/>
<path d="M0 0 C3.63 0 7.26 0 11 0 C11 0.66 11 1.32 11 2 C8.69 2.33 6.38 2.66 4 3 C4 3.66 4 4.32 4 5 C3.34 5 2.68 5 2 5 C1.34 3.35 0.68 1.7 0 0 Z " fill="#D6C1AA" transform="translate(33,6)"/>
<path d="M0 0 C0.99 0.33 1.98 0.66 3 1 C3 1.66 3 2.32 3 3 C4.65 3.33 6.3 3.66 8 4 C7.01 4.495 7.01 4.495 6 5 C5.67 5.66 5.34 6.32 5 7 C5 6.34 5 5.68 5 5 C2.69 4.67 0.38 4.34 -2 4 C-1 1 -1 1 0 0 Z " fill="#CEC5B5" transform="translate(18,9)"/>
<path d="M0 0 C0.61875 0.165 1.2375 0.33 1.875 0.5 C4.16786836 1.23577017 4.16786836 1.23577017 7 0 C7 1.32 7 2.64 7 4 C4.125 4.1875 4.125 4.1875 1 4 C0.34 3.01 -0.32 2.02 -1 1 C-0.67 0.67 -0.34 0.34 0 0 Z " fill="#9F9E95" transform="translate(7,8)"/>
<path d="M0 0 C1.32 0 2.64 0 4 0 C4 0.99 4 1.98 4 3 C-0.29 3 -4.58 3 -9 3 C-9 2.67 -9 2.34 -9 2 C-6.94921875 1.77213542 -4.8984375 1.54427083 -2.84765625 1.31640625 C-0.98859771 1.18113386 -0.98859771 1.18113386 0 0 Z " fill="#CEB8A0" transform="translate(38,15)"/>
<path d="M0 0 C0.66 0.33 1.32 0.66 2 1 C1.67 1.66 1.34 2.32 1 3 C1.66 3 2.32 3 3 3 C3.33 2.34 3.66 1.68 4 1 C4.99 1 5.98 1 7 1 C7 1.99 7 2.98 7 4 C4.69 4.33 2.38 4.66 0 5 C-0.5625 3.0625 -0.5625 3.0625 -1 1 C-0.67 0.67 -0.34 0.34 0 0 Z " fill="#9B9D97" transform="translate(34,8)"/>
<path d="M0 0 C2.475 0.99 2.475 0.99 5 2 C5 2.66 5 3.32 5 4 C6.32 4.33 7.64 4.66 9 5 C6.03 4.67 3.06 4.34 0 4 C0 2.68 0 1.36 0 0 Z " fill="#83654F" transform="translate(3,13)"/>
<path d="M0 0 C2.31 0 4.62 0 7 0 C7 1.32 7 2.64 7 4 C4.625 3.6875 4.625 3.6875 2 3 C1.34 2.01 0.68 1.02 0 0 Z " fill="#ADB0A9" transform="translate(24,8)"/>
</svg>
